<?xml version="1.0" encoding="utf-8"?>
<!-- Generator: Adobe Illustrator 24.2.1, SVG Export Plug-In . SVG Version: 6.00 Build 0)  -->
<svg version="1.1" id="Layer_1" focusable="false" xmlns="http://www.w3.org/2000/svg" xmlns:xlink="http://www.w3.org/1999/xlink"
	 x="0px" y="0px" viewBox="0 0 20 19.5" style="enable-background:new 0 0 20 19.5;" xml:space="preserve">
<path d="M6.7,15.7c0,0.1-0.1,0.1-0.2,0.1c-0.1,0-0.2-0.1-0.2-0.1c0-0.1,0.1-0.1,0.2-0.1C6.6,15.5,6.7,15.6,6.7,15.7z M5.4,15.5
	c0,0.1,0.1,0.2,0.2,0.2c0.1,0,0.2,0,0.2-0.1c0-0.1-0.1-0.2-0.2-0.2C5.6,15.4,5.5,15.4,5.4,15.5L5.4,15.5z M7.2,15.5
	c-0.1,0-0.2,0.1-0.2,0.2c0,0.1,0.1,0.1,0.2,0.1c0.1,0,0.2-0.1,0.2-0.2C7.4,15.5,7.3,15.4,7.2,15.5z M9.9,0C4.3,0,0,4.2,0,9.8
	c0,4.5,2.8,8.3,6.8,9.6c0.5,0.1,0.7-0.2,0.7-0.5c0-0.2,0-1.6,0-2.5c0,0-2.8,0.6-3.4-1.2c0,0-0.5-1.2-1.1-1.5c0,0-0.9-0.6,0.1-0.6
	c0,0,1,0.1,1.6,1c0.9,1.6,2.4,1.1,2.9,0.8c0.1-0.6,0.4-1.1,0.6-1.4c-2.3-0.3-4.5-0.6-4.5-4.5c0-1.1,0.3-1.7,1-2.4
	C4.5,6.7,4.2,5.6,4.7,4.2c0.8-0.3,2.8,1.1,2.8,1.1C8.3,5,9.2,4.9,10,4.9c0.9,0,1.7,0.1,2.5,0.3c0,0,1.9-1.4,2.8-1.1
	c0.6,1.4,0.2,2.5,0.1,2.7c0.6,0.7,1,1.3,1,2.4c0,3.9-2.4,4.2-4.6,4.5c0.4,0.3,0.7,0.9,0.7,1.9c0,1.4,0,3,0,3.4
	c0,0.3,0.2,0.6,0.7,0.5c4-1.3,6.8-5.2,6.8-9.6C20,4.2,15.5,0,9.9,0z M3.9,13.9c-0.1,0,0,0.1,0,0.2c0.1,0.1,0.2,0.1,0.2,0
	c0.1,0,0-0.1,0-0.2C4.1,13.9,4,13.9,3.9,13.9z M3.5,13.6c0,0.1,0,0.1,0.1,0.2c0.1,0,0.1,0,0.2,0c0-0.1,0-0.1-0.1-0.2
	C3.6,13.5,3.5,13.5,3.5,13.6z M4.8,15c-0.1,0.1,0,0.2,0.1,0.3c0.1,0.1,0.2,0.1,0.3,0c0.1-0.1,0-0.2-0.1-0.2C5,15,4.8,15,4.8,15z
	 M4.3,14.4c-0.1,0-0.1,0.1,0,0.2c0.1,0.1,0.2,0.1,0.2,0.1c0.1-0.1,0.1-0.2,0-0.3C4.5,14.4,4.4,14.4,4.3,14.4L4.3,14.4z"/>
</svg>
