<?xml version="1.0" encoding="utf-8"?>
<!-- Generator: Adobe Illustrator 24.2.1, SVG Export Plug-In . SVG Version: 6.00 Build 0)  -->
<svg version="1.1" id="Layer_1" focusable="false" xmlns="http://www.w3.org/2000/svg" xmlns:xlink="http://www.w3.org/1999/xlink"
	 x="0px" y="0px" viewBox="0 0 25 25" style="enable-background:new 0 0 25 25;" xml:space="preserve">
<path d="M21.1,2.5H3.9c-0.8,0-1.4,0.6-1.4,1.4v17.1c0,0.8,0.6,1.4,1.4,1.4h17.1c0.8,0,1.4-0.6,1.4-1.4V3.9
	C22.5,3.1,21.9,2.5,21.1,2.5z M8.5,19.5h-3v-10h3L8.5,19.5L8.5,19.5z M7.1,8.8c-1,0-1.7-0.8-1.7-1.7s0.8-1.7,1.7-1.7
	c0.9,0,1.7,0.8,1.7,1.7C8.8,8,8,8.8,7.1,8.8z M19.5,19.5h-3v-4.6c0-1.1,0-2.5-1.4-2.5c-1.4,0-1.6,1.2-1.6,2.5v4.7h-3v-10h3v2h0
	c0.4-0.7,1.3-1.5,2.6-1.5c2.8,0,3.3,1.9,3.3,4.4V19.5z"/>
</svg>
